{
    "asset" : {
        "generator" : "Khronos glTF Blender I/O v1.8.19",
        "version" : "2.0"
    },
    "scene" : 0,
    "scenes" : [
        {
            "name" : "Scene",
            "nodes" : [
                5
            ]
        }
    ],
    "nodes" : [
        {
            "name" : "Magazine",
            "rotation" : [
                -0.5606288909912109,
                -2.3362255774372898e-07,
                2.428228071948979e-07,
                0.8280671834945679
            ],
            "translation" : [
                1.0569705111151961e-08,
                -0.019999995827674866,
                0.07000000029802322
            ]
        },
        {
            "name" : "Slide",
            "rotation" : [
                0,
                -3.2584136988589307e-07,
                0,
                1
            ],
            "translation" : [
                -3.019915428836839e-09,
                -0.03999999165534973,
                -0.019999995827674866
            ]
        },
        {
            "name" : "Trigger",
            "rotation" : [
                3.604290554903855e-07,
                0.7869281768798828,
                0.6170445680618286,
                3.4083885225300037e-07
            ],
            "scale" : [
                1,
                0.9999998211860657,
                1
            ],
            "translation" : [
                1.8349406716300365e-10,
                0.04586861655116081,
                0.001215202733874321
            ]
        },
        {
            "children" : [
                0,
                1,
                2
            ],
            "name" : "Base",
            "rotation" : [
                0.7071068286895752,
                -5.338508302088485e-08,
                -5.338508302088485e-08,
                0.7071068286895752
            ]
        },
        {
            "mesh" : 0,
            "name" : "Mesh",
            "skin" : 0
        },
        {
            "children" : [
                4,
                3
            ],
            "name" : "Armature"
        }
    ],
    "materials" : [
        {
            "doubleSided" : true,
            "name" : "Material",
            "pbrMetallicRoughness" : {
                "baseColorTexture" : {
                    "index" : 0
                },
                "metallicFactor" : 0,
                "roughnessFactor" : 0.4000000059604645
            }
        }
    ],
    "meshes" : [
        {
            "name" : "Cube.001",
            "primitives" : [
                {
                    "attributes" : {
                        "POSITION" : 0,
                        "NORMAL" : 1,
                        "TEXCOORD_0" : 2,
                        "JOINTS_0" : 3,
                        "WEIGHTS_0" : 4
                    },
                    "indices" : 5,
                    "material" : 0
                }
            ]
        }
    ],
    "textures" : [
        {
            "sampler" : 0,
            "source" : 0
        }
    ],
    "images" : [
        {
            "bufferView" : 6,
            "mimeType" : "image/png",
            "name" : "glock30s_texture"
        }
    ],
    "skins" : [
        {
            "inverseBindMatrices" : 6,
            "joints" : [
                3,
                0,
                1,
                2
            ],
            "name" : "Armature"
        }
    ],
    "accessors" : [
        {
            "bufferView" : 0,
            "componentType" : 5126,
            "count" : 868,
            "max" : [
                0.015816250815987587,
                0.03616057336330414,
                0.13110679388046265
            ],
            "min" : [
                -0.015816250815987587,
                -0.07833243906497955,
                -0.04546165466308594
            ],
            "type" : "VEC3"
        },
        {
            "bufferView" : 1,
            "componentType" : 5126,
            "count" : 868,
            "type" : "VEC3"
        },
        {
            "bufferView" : 2,
            "componentType" : 5126,
            "count" : 868,
            "type" : "VEC2"
        },
        {
            "bufferView" : 3,
            "componentType" : 5121,
            "count" : 868,
            "type" : "VEC4"
        },
        {
            "bufferView" : 4,
            "componentType" : 5126,
            "count" : 868,
            "type" : "VEC4"
        },
        {
            "bufferView" : 5,
            "componentType" : 5123,
            "count" : 2442,
            "type" : "SCALAR"
        },
        {
            "bufferView" : 7,
            "componentType" : 5126,
            "count" : 4,
            "type" : "MAT4"
        }
    ],
    "bufferViews" : [
        {
            "buffer" : 0,
            "byteLength" : 10416,
            "byteOffset" : 0
        },
        {
            "buffer" : 0,
            "byteLength" : 10416,
            "byteOffset" : 10416
        },
        {
            "buffer" : 0,
            "byteLength" : 6944,
            "byteOffset" : 20832
        },
        {
            "buffer" : 0,
            "byteLength" : 3472,
            "byteOffset" : 27776
        },
        {
            "buffer" : 0,
            "byteLength" : 13888,
            "byteOffset" : 31248
        },
        {
            "buffer" : 0,
            "byteLength" : 4884,
            "byteOffset" : 45136
        },
        {
            "buffer" : 0,
            "byteLength" : 677,
            "byteOffset" : 50020
        },
        {
            "buffer" : 0,
            "byteLength" : 256,
            "byteOffset" : 50700
        }
    ],
    "samplers" : [
        {
            "magFilter" : 9728,
            "minFilter" : 9984
        }
    ],
    "buffers" : [
        {
            "byteLength" : 50956,
            "uri" : "data:application/octet-stream;base64,"
        }
    ]
}
